<?xml version="1.0" encoding="UTF-8" standalone="no"?>
<!DOCTYPE svg PUBLIC "-//W3C//DTD SVG 1.1//EN" "http://www.w3.org/Graphics/SVG/1.1/DTD/svg11.dtd">
<svg width="100%" height="100%" viewBox="0 0 29 33" version="1.1" xmlns="http://www.w3.org/2000/svg" xmlns:xlink="http://www.w3.org/1999/xlink" xml:space="preserve" xmlns:serif="http://www.serif.com/" style="fill-rule:evenodd;clip-rule:evenodd;stroke-linejoin:round;stroke-miterlimit:2;">
    <g transform="matrix(0.843492,0,0,0.843492,2.26813,-4.91248)">
        <path d="M18.702,8.858L4.209,12.737C1.727,13.402 0,15.651 0,18.221L0,32.477L10.282,41.56L24.778,37.676C27.26,37.011 28.986,34.762 28.986,32.192L28.986,17.945L18.702,8.858ZM22.32,32.011L6.667,36.206C6.385,36.282 6.108,36.069 6.108,35.777L6.108,19.13C6.108,18.789 6.337,18.49 6.666,18.402L22.319,14.212C22.601,14.137 22.878,14.349 22.878,14.641L22.878,31.284C22.878,31.625 22.649,31.923 22.32,32.011Z" style="fill:rgb(167,170,173);"/>
    </g>
</svg>
